<svg xmlns="http://www.w3.org/2000/svg" xmlns:xlink="http://www.w3.org/1999/xlink" width="500" zoomAndPan="magnify" viewBox="0 0 375 374.999991" height="500" preserveAspectRatio="xMidYMid meet" version="1.0"><defs><clipPath id="dbe21439d8"><path d="M 37.5 38.410156 L 336.75 38.410156 L 336.75 337.660156 L 37.5 337.660156 Z M 37.5 38.410156 " clip-rule="nonzero"/></clipPath><clipPath id="55ffbd69f9"><path d="M 37.5 37.5 L 111 37.5 L 111 111 L 37.5 111 Z M 37.5 37.5 " clip-rule="nonzero"/></clipPath></defs><g clip-path="url(#dbe21439d8)"><path fill="#c9ac95" d="M 336.59375 187.960938 C 231.714844 212.632812 211.714844 232.632812 187.042969 337.511719 C 162.378906 232.625 142.378906 212.625 37.5 187.960938 C 142.378906 163.289062 162.378906 143.289062 187.050781 38.410156 C 211.714844 143.289062 231.714844 163.289062 336.59375 187.960938 Z M 336.59375 187.960938 " fill-opacity="1" fill-rule="nonzero"/></g><g clip-path="url(#55ffbd69f9)"><path fill="#c9ac95" d="M 110.929688 74.214844 C 85.183594 80.273438 80.273438 85.183594 74.214844 110.933594 C 68.160156 85.183594 63.25 80.273438 37.5 74.214844 C 63.25 68.160156 68.160156 63.25 74.214844 37.5 C 80.273438 63.25 85.183594 68.160156 110.929688 74.214844 Z M 110.929688 74.214844 " fill-opacity="1" fill-rule="nonzero"/></g></svg>