<svg xmlns="http://www.w3.org/2000/svg" xmlns:xlink="http://www.w3.org/1999/xlink" width="500" zoomAndPan="magnify" viewBox="0 0 375 374.999991" height="500" preserveAspectRatio="xMidYMid meet" version="1.0"><defs><clipPath id="df57ba3ed6"><path d="M 37.5 38.410156 L 336.75 38.410156 L 336.75 337.660156 L 37.5 337.660156 Z M 37.5 38.410156 " clip-rule="nonzero"/></clipPath><clipPath id="a3fdbc7cf1"><path d="M 37.5 37.5 L 111.75 37.5 L 111.75 111.75 L 37.5 111.75 Z M 37.5 37.5 " clip-rule="nonzero"/></clipPath><clipPath id="f3a3a13122"><path d="M 183.824219 156.023438 L 249 156.023438 L 249 221.273438 L 183.824219 221.273438 Z M 183.824219 156.023438 " clip-rule="nonzero"/></clipPath></defs><g clip-path="url(#df57ba3ed6)"><path fill="#6e1e1e" d="M 336.59375 187.960938 C 231.714844 212.632812 211.714844 232.632812 187.042969 337.511719 C 162.378906 232.625 142.378906 212.625 37.5 187.960938 C 142.378906 163.289062 162.378906 143.289062 187.050781 38.410156 C 211.714844 143.289062 231.714844 163.289062 336.59375 187.960938 Z M 336.59375 187.960938 " fill-opacity="1" fill-rule="nonzero"/></g><g clip-path="url(#a3fdbc7cf1)"><path fill="#6e1e1e" d="M 112.042969 74.773438 C 85.90625 80.921875 80.921875 85.90625 74.769531 112.046875 C 68.625 85.90625 63.640625 80.921875 37.5 74.773438 C 63.640625 68.625 68.625 63.640625 74.773438 37.5 C 80.921875 63.640625 85.90625 68.625 112.042969 74.773438 Z M 112.042969 74.773438 " fill-opacity="1" fill-rule="nonzero"/></g><g clip-path="url(#f3a3a13122)"><path fill="#6e1e1e" d="M 248.96875 188.597656 C 226.125 193.96875 221.769531 198.328125 216.394531 221.171875 C 211.023438 198.324219 206.667969 193.96875 183.824219 188.597656 C 206.667969 183.222656 211.023438 178.867188 216.394531 156.023438 C 221.769531 178.867188 226.125 183.222656 248.96875 188.597656 Z M 248.96875 188.597656 " fill-opacity="1" fill-rule="nonzero"/></g></svg>